<svg width="35" height="35" viewBox="0 0 35 35" fill="none" xmlns="http://www.w3.org/2000/svg">
<path d="M23.3333 11.6667C25.654 11.6667 27.8796 12.5886 29.5205 14.2296C31.1615 15.8705 32.0833 18.0961 32.0833 20.4167V30.6251H26.25V20.4167C26.25 19.6432 25.9427 18.9013 25.3957 18.3544C24.8488 17.8074 24.1069 17.5001 23.3333 17.5001C22.5598 17.5001 21.8179 17.8074 21.271 18.3544C20.724 18.9013 20.4167 19.6432 20.4167 20.4167V30.6251H14.5833V20.4167C14.5833 18.0961 15.5052 15.8705 17.1462 14.2296C18.7871 12.5886 21.0127 11.6667 23.3333 11.6667Z" fill="white"/>
<path d="M8.75001 13.125H2.91667V30.625H8.75001V13.125Z" fill="white"/>
<path d="M5.83334 8.75008C7.44417 8.75008 8.75001 7.44425 8.75001 5.83341C8.75001 4.22258 7.44417 2.91675 5.83334 2.91675C4.22251 2.91675 2.91667 4.22258 2.91667 5.83341C2.91667 7.44425 4.22251 8.75008 5.83334 8.75008Z" fill="white"/>
</svg>
